<svg id="verzeo_new_logo" data-name="verzeo new logo" xmlns="http://www.w3.org/2000/svg" xmlns:xlink="http://www.w3.org/1999/xlink" width="70.565" height="20.926" viewBox="0 0 70.565 20.926">
  <defs>
    <clipPath id="clip-path">
      <path id="Path_17" data-name="Path 17" d="M4.6,3.1H1.169a.211.211,0,0,0-.1.166,1.073,1.073,0,0,0,.028.512c.277,1.079.54,2.159.816,3.238.457,1.785.9,3.57,1.356,5.355s.913,3.612,1.37,5.411c.415,1.619.816,3.238,1.232,4.843.069.249.138.5.208.733A.781.781,0,0,0,6.3,23.7a.307.307,0,0,0,.152.069H9.762A.139.139,0,0,0,9.9,23.69c.014-.042.028-.069.042-.111v-.249c-.014-.069-.028-.152-.042-.221-.235-.969-.484-1.923-.733-2.892-.429-1.716-.872-3.432-1.3-5.161L6.5,9.659c-.443-1.73-.872-3.432-1.3-5.134-.083-.3-.152-.609-.235-.9A.932.932,0,0,0,4.6,3.1Z" transform="translate(-1.052 -3.1)"/>
    </clipPath>
    <clipPath id="clip-path-2">
      <path id="Path_29" data-name="Path 29" d="M42.639,23.673H39.207a.257.257,0,0,1-.1-.166A1.268,1.268,0,0,1,39.138,23c.277-1.079.54-2.159.816-3.238.457-1.785.9-3.57,1.356-5.355s.913-3.612,1.37-5.411c.415-1.619.816-3.238,1.232-4.843.069-.249.138-.5.208-.733a.782.782,0,0,1,.221-.346A.307.307,0,0,1,44.493,3H47.8a.139.139,0,0,1,.138.083c.014.042.028.069.042.111v.249c-.014.069-.028.152-.042.221-.235.969-.484,1.923-.733,2.892-.429,1.716-.872,3.432-1.3,5.161l-1.37,5.4-1.287,5.106c-.083.3-.152.609-.235.9A1.07,1.07,0,0,1,42.639,23.673Z" transform="translate(-39.096 -3)"/>
    </clipPath>
  </defs>
  <g id="Group_1" data-name="Group 1" transform="translate(15.56)">
    <path id="Path_1" data-name="Path 1" d="M122.356,3.1h-8.5a.357.357,0,0,0-.36.36V23.344a.357.357,0,0,0,.36.36h8.5a.357.357,0,0,0,.36-.36V20.494a.357.357,0,0,0-.36-.36H117.07V15h4.566a.357.357,0,0,0,.36-.36V11.97a.357.357,0,0,0-.36-.36H117.07V6.49h5.286a.357.357,0,0,0,.36-.36V3.446A.346.346,0,0,0,122.356,3.1Z" transform="translate(-113.5 -2.93)" fill="#fcd203"/>
    <path id="Path_2" data-name="Path 2" d="M201.729,14.419a4.5,4.5,0,0,0,1.813-2.006,7.6,7.6,0,0,0,.581-3.127c0-4.11-1.813-6.185-5.383-6.185h-4.58a.357.357,0,0,0-.36.36V23.344a.357.357,0,0,0,.36.36h2.851a.357.357,0,0,0,.36-.36v-8.15h1.093l2.574,8.247a.341.341,0,0,0,.332.249h3.017a.361.361,0,0,0,.291-.152.329.329,0,0,0,.042-.318ZM197.356,6.49h1.121a1.968,1.968,0,0,1,1.716.623,2.239,2.239,0,0,1,.277.858,8.533,8.533,0,0,1,.083,1.273,8.533,8.533,0,0,1-.083,1.273,2.549,2.549,0,0,1-.263.83,1.2,1.2,0,0,1-.54.47,2.664,2.664,0,0,1-1.052.18h-1.273V6.49Z" transform="translate(-182.688 -2.93)" fill="#fcd203"/>
    <path id="Path_3" data-name="Path 3" d="M287.415,3.1h-8.178a.357.357,0,0,0-.36.36V6.13a.357.357,0,0,0,.36.36h4.58L278.628,20.7a.4.4,0,0,0-.028.125v2.518a.357.357,0,0,0,.36.36h8.469a.357.357,0,0,0,.36-.36V20.66a.357.357,0,0,0-.36-.36h-4.968l5.3-14.474a.4.4,0,0,0,.028-.125V3.446A.387.387,0,0,0,287.415,3.1Z" transform="translate(-255.754 -2.93)" fill="#fcd203"/>
    <path id="Path_4" data-name="Path 4" d="M366.656,3.1h-8.5a.357.357,0,0,0-.36.36V23.344a.357.357,0,0,0,.36.36h8.5a.357.357,0,0,0,.36-.36V20.494a.357.357,0,0,0-.36-.36H361.37V15h4.566a.357.357,0,0,0,.36-.36V11.97a.357.357,0,0,0-.36-.36H361.37V6.49h5.286a.357.357,0,0,0,.36-.36V3.446A.364.364,0,0,0,366.656,3.1Z" transform="translate(-323.995 -2.93)" fill="#fcd203"/>
    <path id="Path_5" data-name="Path 5" d="M446.525,4.812a5.2,5.2,0,0,0-1.19-1.661,5.523,5.523,0,0,0-1.661-.955,5.425,5.425,0,0,0-3.681,0,5.075,5.075,0,0,0-1.633.955,4.759,4.759,0,0,0-1.2,1.661,5.4,5.4,0,0,0-.457,2.269v10.5a5.313,5.313,0,0,0,.457,2.3,4.658,4.658,0,0,0,1.2,1.591,4.911,4.911,0,0,0,1.647,1,5.332,5.332,0,0,0,1.84.332,5.39,5.39,0,0,0,1.84-.332,5.325,5.325,0,0,0,1.661-.982,4.773,4.773,0,0,0,1.176-1.591,5.314,5.314,0,0,0,.457-2.3V7.081A5.87,5.87,0,0,0,446.525,4.812Zm-5.812,1.024a1.642,1.642,0,0,1,1.121-.4,1.686,1.686,0,0,1,1.121.4A1.55,1.55,0,0,1,443.4,7.1V17.6a1.617,1.617,0,0,1-.443,1.259,1.642,1.642,0,0,1-1.121.4,1.686,1.686,0,0,1-1.121-.4,1.55,1.55,0,0,1-.443-1.259V7.081A1.564,1.564,0,0,1,440.713,5.836Z" transform="translate(-391.977 -1.875)" fill="#fcd203"/>
  </g>
  <g id="Group_10" data-name="Group 10" transform="translate(0 0.156)">
    <g id="Group_2" data-name="Group 2" transform="translate(0 0.014)">
      <path id="Path_6" data-name="Path 6" d="M4.6,3.1H1.169a.211.211,0,0,0-.1.166,1.073,1.073,0,0,0,.028.512c.277,1.079.54,2.159.816,3.238.457,1.785.9,3.57,1.356,5.355s.913,3.612,1.37,5.411c.415,1.619.816,3.238,1.232,4.843.069.249.138.5.208.733A.781.781,0,0,0,6.3,23.7a.307.307,0,0,0,.152.069H9.762A.139.139,0,0,0,9.9,23.69c.014-.042.028-.069.042-.111v-.249c-.014-.069-.028-.152-.042-.221-.235-.969-.484-1.923-.733-2.892-.429-1.716-.872-3.432-1.3-5.161L6.5,9.659c-.443-1.73-.872-3.432-1.3-5.134-.083-.3-.152-.609-.235-.9A.932.932,0,0,0,4.6,3.1Z" transform="translate(-1.052 -3.1)" fill="#fcd203"/>
    </g>
    <g id="Group_4" data-name="Group 4" transform="translate(0 0.014)">
      <g id="Group_3" data-name="Group 3" clip-path="url(#clip-path)">
        <path id="Path_7" data-name="Path 7" d="M22.557,22.307a.125.125,0,0,1,.014-.069c.042-.291.138-.581.208-.872s.152-.609.235-.913c.152-.609.3-1.218.47-1.827s.3-1.218.47-1.827c.055-.235.125-.457.18-.692.457-1.771.9-3.556,1.356-5.327.47-1.854.955-3.722,1.425-5.577.235-.9.457-1.8.692-2.7a2.8,2.8,0,0,1,.194-.47.614.614,0,0,1,.111-.152.251.251,0,0,1,.194-.083h3.349a.141.141,0,0,1,.138.069c.028.028.028.069.042.111a1.252,1.252,0,0,1-.055.6c-.055.194-.1.387-.152.581-.1.4-.208.8-.3,1.2-.457,1.8-.913,3.584-1.37,5.383-.484,1.882-.955,3.75-1.439,5.632-.484,1.91-.969,3.819-1.467,5.729-.083.346-.18.706-.277,1.052a2.5,2.5,0,0,1-.111.291.658.658,0,0,1-.263.318H22.848c-.055,0-.138.014-.18-.014a.191.191,0,0,1-.042-.055A.534.534,0,0,1,22.557,22.307Z" transform="translate(-19.575 -1.98)" fill="#fcd203"/>
        <path id="Path_8" data-name="Path 8" d="M24.239,22.307a.125.125,0,0,1,.014-.069c.042-.291.138-.581.208-.872s.152-.609.235-.913c.152-.609.3-1.218.47-1.827s.3-1.218.47-1.827c.055-.235.125-.457.18-.692.457-1.771.9-3.556,1.356-5.327.47-1.854.955-3.722,1.425-5.577.235-.9.457-1.8.692-2.7a2.8,2.8,0,0,1,.194-.47.614.614,0,0,1,.111-.152.251.251,0,0,1,.194-.083h3.349a.141.141,0,0,1,.138.069c.028.028.028.069.042.111a1.252,1.252,0,0,1-.055.6c-.055.194-.1.387-.152.581-.1.4-.208.8-.3,1.2-.457,1.8-.913,3.584-1.37,5.383-.484,1.882-.955,3.75-1.439,5.632-.484,1.91-.969,3.819-1.467,5.729-.083.346-.18.706-.277,1.052a2.5,2.5,0,0,1-.111.291.658.658,0,0,1-.263.318H24.53c-.055,0-.138.014-.18-.014a.191.191,0,0,1-.042-.055A.475.475,0,0,1,24.239,22.307Z" transform="translate(-21.022 -1.98)" fill="#f8ce07"/>
        <path id="Path_9" data-name="Path 9" d="M25.9,22.307a.125.125,0,0,1,.014-.069c.042-.291.138-.581.208-.872s.152-.609.235-.913c.152-.609.3-1.218.47-1.827s.3-1.218.47-1.827c.055-.235.125-.457.18-.692.457-1.771.9-3.556,1.356-5.327.47-1.854.955-3.722,1.425-5.577.235-.9.457-1.8.692-2.7a2.8,2.8,0,0,1,.194-.47.614.614,0,0,1,.111-.152A.251.251,0,0,1,31.45,1.8H34.8a.141.141,0,0,1,.138.069c.028.028.028.069.042.111a1.252,1.252,0,0,1-.055.6c-.055.194-.1.387-.152.581-.1.4-.208.8-.3,1.2-.457,1.8-.913,3.584-1.37,5.383-.484,1.882-.955,3.75-1.439,5.632-.484,1.91-.969,3.819-1.467,5.729-.083.346-.18.706-.277,1.052a2.5,2.5,0,0,1-.111.291.658.658,0,0,1-.263.318H26.191c-.055,0-.138.014-.18-.014a.191.191,0,0,1-.042-.055A.429.429,0,0,1,25.9,22.307Z" transform="translate(-22.449 -1.98)" fill="#f4ca0b"/>
        <path id="Path_10" data-name="Path 10" d="M27.555,22.307a.125.125,0,0,1,.014-.069c.042-.291.138-.581.208-.872s.152-.609.235-.913c.152-.609.3-1.218.47-1.827s.3-1.218.47-1.827c.055-.235.125-.457.18-.692.457-1.771.9-3.556,1.356-5.327.47-1.854.955-3.722,1.425-5.577.235-.9.457-1.8.692-2.7a2.8,2.8,0,0,1,.194-.47.614.614,0,0,1,.111-.152A.251.251,0,0,1,33.1,1.8h3.349a.141.141,0,0,1,.138.069c.028.028.028.069.042.111a1.252,1.252,0,0,1-.055.6c-.055.194-.1.387-.152.581-.1.4-.208.8-.3,1.2-.457,1.8-.913,3.584-1.37,5.383-.5,1.882-.969,3.764-1.453,5.632-.484,1.91-.969,3.819-1.467,5.729-.083.346-.18.706-.277,1.052a2.5,2.5,0,0,1-.111.291.658.658,0,0,1-.263.318H27.832c-.055,0-.138.014-.18-.014a.191.191,0,0,1-.042-.055A.609.609,0,0,1,27.555,22.307Z" transform="translate(-23.881 -1.98)" fill="#f0c710"/>
        <path id="Path_11" data-name="Path 11" d="M29.2,22.307a.125.125,0,0,1,.014-.069c.042-.291.138-.581.208-.872s.152-.609.235-.913c.152-.609.3-1.218.47-1.827s.3-1.218.47-1.827c.055-.235.125-.457.18-.692.457-1.771.9-3.556,1.356-5.327.47-1.854.955-3.722,1.425-5.577.235-.9.457-1.8.692-2.7a2.8,2.8,0,0,1,.194-.47.614.614,0,0,1,.111-.152A.251.251,0,0,1,34.75,1.8H38.1a.141.141,0,0,1,.138.069c.028.028.028.069.042.111a1.252,1.252,0,0,1-.055.6c-.055.194-.1.387-.152.581-.1.4-.208.8-.3,1.2-.457,1.8-.913,3.584-1.37,5.383-.484,1.882-.955,3.75-1.439,5.632-.484,1.91-.969,3.819-1.467,5.729-.083.346-.18.706-.277,1.052a2.5,2.5,0,0,1-.111.291.658.658,0,0,1-.263.318H29.491c-.055,0-.138.014-.18-.014a.191.191,0,0,1-.042-.055A.429.429,0,0,1,29.2,22.307Z" transform="translate(-25.292 -1.98)" fill="#ecc314"/>
        <path id="Path_12" data-name="Path 12" d="M30.857,22.307a.125.125,0,0,1,.014-.069c.042-.291.138-.581.208-.872s.152-.609.235-.913c.152-.609.3-1.218.47-1.827s.3-1.218.47-1.827c.055-.235.125-.457.18-.692.457-1.771.9-3.556,1.356-5.327.47-1.854.955-3.722,1.425-5.577.235-.9.457-1.8.692-2.7a2.8,2.8,0,0,1,.194-.47.614.614,0,0,1,.111-.152.251.251,0,0,1,.194-.083h3.349a.141.141,0,0,1,.138.069c.028.028.028.069.042.111a1.252,1.252,0,0,1-.055.6c-.055.194-.1.387-.152.581-.1.4-.208.8-.3,1.2-.457,1.8-.913,3.584-1.37,5.383-.484,1.882-.955,3.75-1.439,5.632-.484,1.91-.969,3.819-1.467,5.729-.083.346-.18.706-.277,1.052a2.494,2.494,0,0,1-.111.291.658.658,0,0,1-.263.318H31.148c-.055,0-.138.014-.18-.014a.191.191,0,0,1-.042-.055A.534.534,0,0,1,30.857,22.307Z" transform="translate(-26.727 -1.98)" fill="#e7bf18"/>
        <path id="Path_13" data-name="Path 13" d="M32.535,22.307a.125.125,0,0,1,.014-.069c.042-.291.138-.581.208-.872s.152-.609.235-.913c.152-.609.3-1.218.47-1.827s.3-1.218.47-1.827c.055-.235.125-.457.18-.692.457-1.771.9-3.556,1.356-5.327.47-1.854.955-3.722,1.425-5.577.235-.9.457-1.8.692-2.7a2.8,2.8,0,0,1,.194-.47.614.614,0,0,1,.111-.152.251.251,0,0,1,.194-.083h3.349a.141.141,0,0,1,.138.069c.028.028.028.069.042.111a1.252,1.252,0,0,1-.055.6c-.055.194-.1.387-.152.581-.1.4-.208.8-.3,1.2-.457,1.8-.913,3.584-1.37,5.383-.5,1.882-.969,3.764-1.453,5.632-.484,1.91-.969,3.819-1.467,5.729-.083.346-.18.706-.277,1.052a2.494,2.494,0,0,1-.111.291.658.658,0,0,1-.263.318H32.812c-.055,0-.138.014-.18-.014a.191.191,0,0,1-.042-.055A.53.53,0,0,1,32.535,22.307Z" transform="translate(-28.169 -1.98)" fill="#e3bb1c"/>
        <path id="Path_14" data-name="Path 14" d="M34.157,22.307a.125.125,0,0,1,.014-.069c.042-.291.138-.581.208-.872s.152-.609.235-.913c.152-.609.3-1.218.47-1.827s.3-1.218.47-1.827c.055-.235.125-.457.18-.692.457-1.771.9-3.556,1.356-5.327.47-1.854.955-3.722,1.425-5.577.235-.9.457-1.8.692-2.7a2.8,2.8,0,0,1,.194-.47.615.615,0,0,1,.111-.152.251.251,0,0,1,.194-.083h3.349a.141.141,0,0,1,.138.069c.028.028.028.069.042.111a1.252,1.252,0,0,1-.055.6c-.055.194-.1.387-.152.581-.1.4-.208.8-.3,1.2-.457,1.8-.913,3.584-1.37,5.383-.484,1.882-.955,3.75-1.439,5.632-.484,1.91-.969,3.819-1.467,5.729-.083.346-.18.706-.277,1.052a2.5,2.5,0,0,1-.111.291.658.658,0,0,1-.263.318H34.448c-.055,0-.138.014-.18-.014a.191.191,0,0,1-.042-.055A.534.534,0,0,1,34.157,22.307Z" transform="translate(-29.57 -1.98)" fill="#dfb821"/>
        <path id="Path_15" data-name="Path 15" d="M35.839,22.307a.125.125,0,0,1,.014-.069c.042-.291.138-.581.208-.872s.152-.609.235-.913c.152-.609.3-1.218.47-1.827s.3-1.218.47-1.827c.055-.235.125-.457.18-.692.457-1.771.9-3.556,1.356-5.327.47-1.854.955-3.722,1.425-5.577.235-.9.457-1.8.692-2.7a2.8,2.8,0,0,1,.194-.47.614.614,0,0,1,.111-.152.251.251,0,0,1,.194-.083h3.349a.141.141,0,0,1,.138.069c.028.028.028.069.042.111a1.252,1.252,0,0,1-.055.6c-.055.194-.1.387-.152.581-.1.4-.208.8-.3,1.2-.457,1.8-.913,3.584-1.37,5.383-.484,1.882-.955,3.75-1.439,5.632-.484,1.91-.969,3.819-1.467,5.729-.083.346-.18.706-.277,1.052a2.494,2.494,0,0,1-.111.291.658.658,0,0,1-.263.318H36.13c-.055,0-.138.014-.18-.014a.191.191,0,0,1-.042-.055A.475.475,0,0,1,35.839,22.307Z" transform="translate(-31.017 -1.98)" fill="#dbb425"/>
        <path id="Path_16" data-name="Path 16" d="M37.5,22.307a.125.125,0,0,1,.014-.069c.042-.291.138-.581.208-.872s.152-.609.235-.913c.152-.609.3-1.218.47-1.827s.3-1.218.47-1.827c.055-.235.125-.457.18-.692.457-1.771.9-3.556,1.356-5.327.47-1.854.955-3.722,1.425-5.577.235-.9.457-1.8.692-2.7a2.8,2.8,0,0,1,.194-.47.614.614,0,0,1,.111-.152.251.251,0,0,1,.194-.083h3.349a.141.141,0,0,1,.138.069c.028.028.028.069.042.111a1.252,1.252,0,0,1-.055.6c-.055.194-.1.387-.152.581-.1.4-.208.8-.3,1.2-.457,1.8-.913,3.584-1.37,5.383-.5,1.882-.982,3.764-1.453,5.632-.484,1.91-.969,3.819-1.467,5.729-.083.346-.18.706-.277,1.052a2.5,2.5,0,0,1-.111.291.658.658,0,0,1-.263.318H37.774c-.055,0-.138.014-.18-.014a.191.191,0,0,1-.042-.055A.471.471,0,0,1,37.5,22.307Z" transform="translate(-32.439 -1.98)" fill="#d7b029"/>
      </g>
    </g>
    <g id="Group_6" data-name="Group 6" transform="translate(5.264 0)">
      <g id="Group_5" data-name="Group 5">
        <path id="Path_18" data-name="Path 18" d="M42.639,23.673H39.207a.257.257,0,0,1-.1-.166A1.268,1.268,0,0,1,39.138,23c.277-1.079.54-2.159.816-3.238.457-1.785.9-3.57,1.356-5.355s.913-3.612,1.37-5.411c.415-1.619.816-3.238,1.232-4.843.069-.249.138-.5.208-.733a.782.782,0,0,1,.221-.346A.307.307,0,0,1,44.493,3H47.8a.139.139,0,0,1,.138.083c.014.042.028.069.042.111v.249c-.014.069-.028.152-.042.221-.235.969-.484,1.923-.733,2.892-.429,1.716-.872,3.432-1.3,5.161l-1.37,5.4-1.287,5.106c-.083.3-.152.609-.235.9A1.07,1.07,0,0,1,42.639,23.673Z" transform="translate(-39.096 -3)" fill="#fcd203"/>
      </g>
    </g>
    <g id="Group_8" data-name="Group 8" transform="translate(5.264 0)">
      <g id="Group_7" data-name="Group 7" clip-path="url(#clip-path-2)">
        <path id="Path_19" data-name="Path 19" d="M47.511,13.129a.615.615,0,0,0,.014-.277c-.014-.111-.1-.152-.208-.152h-8.5c-.138,0-.208.083-.221.221a.538.538,0,0,0,.028.208c.277,1.024.554,2.062.83,3.086a.345.345,0,0,0,.36.277H46.64c.014-.042.028-.1.042-.138C46.944,15.274,47.235,14.194,47.511,13.129Z" transform="translate(-38.669 -11.358)" fill="#fcd203"/>
        <path id="Path_20" data-name="Path 20" d="M47.511,12.229a.615.615,0,0,0,.014-.277c-.014-.111-.1-.152-.208-.152h-8.5c-.138,0-.208.083-.221.221a.538.538,0,0,0,.028.208c.277,1.024.554,2.062.83,3.086a.345.345,0,0,0,.36.277H46.64c.014-.042.028-.1.042-.138C46.944,14.374,47.235,13.308,47.511,12.229Z" transform="translate(-38.669 -10.582)" fill="#f8ce07"/>
        <path id="Path_21" data-name="Path 21" d="M47.511,11.329a.615.615,0,0,0,.014-.277c-.014-.111-.1-.152-.208-.152h-8.5c-.138,0-.208.083-.221.221a.538.538,0,0,0,.028.208c.277,1.024.554,2.062.83,3.086a.345.345,0,0,0,.36.277H46.64c.014-.042.028-.1.042-.138C46.944,13.474,47.235,12.408,47.511,11.329Z" transform="translate(-38.669 -9.807)" fill="#f4cb0b"/>
        <path id="Path_22" data-name="Path 22" d="M47.511,10.529a.615.615,0,0,0,.014-.277c-.014-.111-.1-.152-.208-.152h-8.5c-.138,0-.208.083-.221.221a.538.538,0,0,0,.028.208c.277,1.024.554,2.062.83,3.086a.345.345,0,0,0,.36.277H46.64c.014-.042.028-.1.042-.138C46.944,12.674,47.235,11.594,47.511,10.529Z" transform="translate(-38.669 -9.118)" fill="#f0c710"/>
        <path id="Path_23" data-name="Path 23" d="M47.511,9.629a.615.615,0,0,0,.014-.277c-.014-.111-.1-.152-.208-.152h-8.5c-.138,0-.208.083-.221.221a.538.538,0,0,0,.028.208c.277,1.024.554,2.062.83,3.086a.345.345,0,0,0,.36.277H46.64c.014-.042.028-.1.042-.138C46.944,11.774,47.235,10.708,47.511,9.629Z" transform="translate(-38.669 -8.342)" fill="#ecc314"/>
        <path id="Path_24" data-name="Path 24" d="M47.511,8.729a.615.615,0,0,0,.014-.277c-.014-.111-.1-.152-.208-.152h-8.5c-.138,0-.208.083-.221.221a.538.538,0,0,0,.028.208c.277,1.024.554,2.062.83,3.086a.345.345,0,0,0,.36.277H46.64c.014-.042.028-.1.042-.138C46.944,10.888,47.235,9.808,47.511,8.729Z" transform="translate(-38.669 -7.567)" fill="#e7c018"/>
        <path id="Path_25" data-name="Path 25" d="M47.511,7.929a.615.615,0,0,0,.014-.277c-.014-.111-.1-.152-.208-.152h-8.5c-.138,0-.208.083-.221.221a.538.538,0,0,0,.028.208c.277,1.024.554,2.062.83,3.086a.345.345,0,0,0,.36.277H46.64c.014-.042.028-.1.042-.138C46.944,10.074,47.235,9.008,47.511,7.929Z" transform="translate(-38.669 -6.877)" fill="#e3bc1c"/>
        <path id="Path_26" data-name="Path 26" d="M47.511,7.029a.615.615,0,0,0,.014-.277c-.014-.111-.1-.152-.208-.152h-8.5c-.138,0-.208.083-.221.221a.538.538,0,0,0,.028.208c.277,1.024.554,2.062.83,3.086a.345.345,0,0,0,.36.277H46.64c.014-.042.028-.1.042-.138C46.944,9.174,47.235,8.108,47.511,7.029Z" transform="translate(-38.669 -6.102)" fill="#dfb821"/>
        <path id="Path_27" data-name="Path 27" d="M47.511,6.229a.615.615,0,0,0,.014-.277c-.014-.111-.1-.152-.208-.152h-8.5c-.138,0-.208.083-.221.221a.538.538,0,0,0,.028.208c.277,1.024.554,2.062.83,3.086a.345.345,0,0,0,.36.277H46.64c.014-.042.028-.1.042-.138C46.944,8.374,47.235,7.294,47.511,6.229Z" transform="translate(-38.669 -5.413)" fill="#dbb525"/>
        <path id="Path_28" data-name="Path 28" d="M47.511,5.329a.615.615,0,0,0,.014-.277c-.014-.111-.1-.152-.208-.152h-8.5c-.138,0-.208.083-.221.221a.538.538,0,0,0,.028.208c.277,1.024.554,2.062.83,3.086a.345.345,0,0,0,.36.277H46.64c.014-.042.028-.1.042-.138C46.944,7.474,47.235,6.408,47.511,5.329Z" transform="translate(-38.669 -4.637)" fill="#d7b129"/>
      </g>
    </g>
    <g id="Group_9" data-name="Group 9" transform="translate(5.154 0)">
      <path id="Path_30" data-name="Path 30" d="M38.3,3.36V3.194c0-.014.014-.028.014-.055A.2.2,0,0,1,38.521,3h8.538a.188.188,0,0,1,.208.152.625.625,0,0,1-.014.277c-.263,1.01-.526,2.02-.789,3.044a.435.435,0,0,1-.263.332H39.407a.5.5,0,0,1-.249-.3c-.221-.816-.443-1.647-.664-2.463C38.425,3.816,38.369,3.6,38.3,3.36Z" transform="translate(-38.3 -3)" fill="#fcd203"/>
    </g>
  </g>
</svg>
